<?xml version="1.0" standalone="no"?>
<!DOCTYPE svg PUBLIC "-//W3C//DTD SVG 20010904//EN"
 "http://www.w3.org/TR/2001/REC-SVG-20010904/DTD/svg10.dtd">
<svg version="1.0" xmlns="http://www.w3.org/2000/svg"
 width="1280.000000pt" height="1280.000000pt" viewBox="0 0 1280.000000 1280.000000"
 preserveAspectRatio="xMidYMid meet">
<metadata>
Created by potrace 1.14, written by Peter Selinger 2001-2017
</metadata>
<g transform="translate(0.000000,1280.000000) scale(0.100000,-0.100000)"
fill="#000000" stroke="none">
<path d="M2700 12785 c-36 -7 -85 -19 -110 -26 -25 -7 -47 -13 -50 -14 -3 0
-31 -13 -64 -28 -32 -15 -60 -27 -63 -27 -10 0 -149 -94 -176 -119 -71 -64
-115 -109 -147 -151 -19 -25 -37 -47 -40 -50 -22 -21 -88 -157 -119 -243 -33
-94 -43 -140 -45 -209 0 -27 -3 -48 -6 -48 -7 0 -5 -189 3 -196 3 -4 3 -14 -1
-23 -9 -19 -8 -1248 1 -1257 3 -4 3 -14 -1 -23 -6 -13 -8 -3166 -2 -3181 1 -3
1 -9 0 -15 -7 -26 -4 -2937 3 -2942 4 -2 3 -12 -1 -21 -5 -9 -7 -35 -5 -57 4
-58 4 -56 0 -105 -1 -25 0 -57 4 -72 5 -17 4 -28 -2 -28 -6 0 -7 -6 -2 -13 4
-6 9 -23 10 -37 9 -123 69 -308 139 -437 59 -107 63 -113 147 -213 73 -86 103
-114 308 -280 96 -78 194 -158 218 -178 24 -20 60 -49 80 -65 53 -42 112 -90
127 -105 7 -6 17 -12 23 -12 6 0 11 -4 11 -8 0 -4 23 -26 52 -47 28 -22 56
-44 62 -50 6 -6 47 -40 91 -75 44 -36 82 -68 83 -72 2 -5 10 -8 18 -8 8 0 14
-3 14 -8 0 -4 23 -25 51 -47 28 -22 59 -47 68 -55 10 -8 33 -26 51 -40 17 -13
42 -33 54 -45 46 -41 76 -65 76 -60 0 2 21 -16 48 -40 26 -25 50 -45 54 -45 4
0 21 -12 37 -28 16 -15 42 -37 58 -49 57 -45 158 -128 169 -138 6 -5 26 -21
44 -35 19 -14 44 -34 56 -45 13 -11 37 -31 54 -44 18 -14 46 -37 62 -53 17
-15 33 -28 37 -28 3 0 21 -14 40 -30 18 -16 49 -42 68 -57 19 -15 43 -35 53
-43 35 -29 55 -45 105 -85 28 -21 55 -44 60 -49 6 -6 26 -23 45 -37 19 -15 46
-37 60 -49 14 -12 38 -31 53 -43 16 -12 34 -27 40 -32 7 -6 59 -49 117 -95 58
-46 107 -87 110 -90 12 -13 109 -90 114 -90 3 0 16 -10 29 -22 47 -46 87 -78
97 -78 5 0 10 -4 10 -8 0 -5 19 -22 43 -39 23 -17 51 -39 62 -50 11 -10 36
-30 55 -44 19 -15 46 -37 61 -50 14 -13 50 -43 80 -66 29 -23 68 -54 84 -67
17 -14 35 -29 40 -34 6 -4 48 -39 95 -77 47 -38 90 -73 95 -77 6 -5 48 -39 95
-76 98 -78 186 -134 233 -147 4 -2 8 -3 10 -5 2 -2 8 -3 102 -28 52 -14 98
-18 180 -17 121 3 139 6 229 37 83 28 217 105 251 143 6 6 30 27 55 46 25 19
55 43 67 54 12 11 28 25 35 30 7 6 60 49 118 95 58 47 112 90 120 97 44 35
109 88 140 114 74 62 86 72 132 107 27 20 48 40 48 44 0 4 6 8 13 8 7 0 23 10
35 23 11 12 27 27 34 32 26 20 113 89 118 95 3 3 75 61 160 130 85 68 157 127
160 130 3 3 39 32 80 64 41 33 82 67 91 75 9 9 29 25 43 35 15 11 37 28 49 38
12 11 32 28 45 39 12 10 24 19 27 19 2 0 16 11 31 25 15 14 41 36 57 48 16 12
34 27 40 32 7 6 48 39 92 75 44 35 82 67 85 70 4 4 71 58 115 93 6 4 21 17 35
28 14 11 40 33 59 47 19 15 53 43 76 62 22 19 58 49 79 65 21 17 44 35 50 40
6 6 45 37 86 70 41 33 81 64 88 70 7 5 21 17 30 26 9 8 89 73 177 144 88 71
162 132 163 137 2 4 8 8 12 8 5 0 22 12 38 27 16 16 41 37 56 47 15 11 35 27
45 35 11 9 36 30 56 46 93 75 179 145 220 180 13 11 36 29 51 40 15 11 32 25
38 30 6 6 34 28 61 50 28 22 61 49 75 62 14 12 54 46 90 75 128 104 242 243
307 375 20 41 40 76 45 79 4 3 8 13 8 22 0 9 7 29 15 45 18 35 66 226 72 287
7 80 6 7993 -1 8045 -17 115 -85 312 -122 356 -8 8 -14 19 -14 23 0 4 -12 24
-27 44 -16 20 -35 46 -43 57 -24 33 -182 185 -192 185 -5 0 -18 9 -30 20 -21
19 -197 110 -221 114 -7 1 -18 5 -24 9 -7 5 -13 5 -13 1 0 -3 -7 -1 -15 6 -8
7 -15 10 -15 7 0 -3 -24 2 -52 11 -49 15 -349 17 -3718 18 -2976 2 -3677 0
-3730 -11z"/>
</g>
</svg>
